<?xml version="1.0" encoding="utf-8"?>
<!-- Generator: Adobe Illustrator 27.8.1, SVG Export Plug-In . SVG Version: 6.00 Build 0)  -->
<svg version="1.1" id="Layer_1" xmlns="http://www.w3.org/2000/svg" xmlns:xlink="http://www.w3.org/1999/xlink" x="0px" y="0px"
	 viewBox="0 0 1033 1095" style="enable-background:new 0 0 1033 1095;" xml:space="preserve">
<style type="text/css">
	.st0{opacity:0;fill:#121619;}
	.st1{fill-rule:evenodd;clip-rule:evenodd;fill:url(#SVGID_1_);}
	.st2{fill:#121619;}
	.st3{fill-rule:evenodd;clip-rule:evenodd;fill:url(#SVGID_00000177443496676203623490000004563382806204010671_);}
	.st4{fill:#FFFFFF;}
</style>
<rect class="st0" width="1033" height="1095"/>
<g>
	<g id="Layer_1-2">
		<g>
			<g>
				
					<linearGradient id="SVGID_1_" gradientUnits="userSpaceOnUse" x1="345.4203" y1="911.6199" x2="631.0336" y2="257.5484" gradientTransform="matrix(1 0 0 -1 0 1089.3362)">
					<stop  offset="0" style="stop-color:#343A3F"/>
					<stop  offset="1" style="stop-color:#343A3F;stop-opacity:0"/>
				</linearGradient>
				<path class="st1" d="M889.9,157.5c-1.3-2.4-2.6-4.8-4-7.1c0,0,0,0,0,0c-0.8-1.3-1.5-2.5-2.3-3.7v0h0v0
					c-52.9-83.9-162-112.5-302-63.7h0C351.7,163.1,125.7,421.8,76.7,660.7v0c-20.1,98.1-7.2,177.6,30.9,231.7v0.1
					c3.3,4.7,6.7,9.1,10.4,13.4c0.1,0.1,0.2,0.2,0.2,0.3c5.7,6.7,11.9,12.9,18.5,18.6c0.1,0.2,0.3,0.3,0.4,0.3
					c0.1,0.1,0.2,0.2,0.2,0.2c0.1,0.1,0.2,0.1,0.2,0.2c0.3,0.3,0.7,0.6,1.1,0.9c0.7,0.5,1.3,1.1,2,1.6c0.3,0.2,0.5,0.4,0.8,0.7
					l1.4,1.1c47.3,37.5,114.8,51.3,196.1,36.1c1.6-0.3,3.2-0.6,4.8-0.9c1.6-0.3,3.2-0.7,4.8-1c1.7-0.4,3.4-0.8,5.2-1.2
					c2.5-0.6,5-1.2,7.5-1.8c1.6-0.4,3.2-0.8,4.8-1.2c2.6-0.7,5.1-1.4,7.7-2.1c10-2.8,20.2-5.9,30.6-9.6
					c229.9-80.2,455.9-338.8,504.8-577.7c0,0,0,0,0-0.1c3.5-17.1,6-33.5,7.5-49.4c0.2-2.3,0.4-4.5,0.6-6.8c0.2-2.6,0.4-5.1,0.5-7.7
					c0,0,0,0,0-0.1c0.2-2.9,0.3-5.7,0.4-8.6c0.2-3.2,0.2-6.5,0.3-9.7C919.2,236.9,909.2,192.9,889.9,157.5z M787.7,362.3
					L591.8,501.4L591,502l107.6,180.8l-57.6-7.8L534.1,492.8l199.8-136.4L787.7,362.3z M407.2,317.4l0.4,0.4l-0.1-0.4
					c0.5,0,1,0,1.5,0c5.8,0,9.2,0.4,9.4,0.4l220.5,27.7l34.1,4.3L514.3,459.6l-19.4-31.5l77.1-53.3l-154.3-18.4
					c-92.3-5-134.2,75.5-134.6,76.4c-38.8,83.4,12.7,131.9,13.3,132.4l0.6,0.6l126.8-87.5l-46.8-78l19.9-2.5
					c15-1.8,29.8,5.3,37.6,18.2l42.9,70.3L293,612c-56.7-32.9-65.5-83.2-62.9-119.5c2.9-39.7,19.5-72,19.7-72.4
					C300.4,327.8,378.4,317.8,407.2,317.4z M496.2,518l84.6,146.5l-54.6-8.2l-46-80l-89.2,61.3l-52.5-7.5L496.2,518z M691.2,388.9
					l-0.7-0.7l-0.7,0.7l0.7,0.7L691.2,388.9z"/>
			</g>
			<polygon class="st2" points="909.1,370.4 908.2,370.2 908.2,370.2 			"/>
			<polygon class="st2" points="581.5,83 581.2,82.1 581.2,82.1 			"/>
			
				<rect x="193.3" y="561.5" transform="matrix(0.6579 -0.7531 0.7531 0.6579 -356.9313 338.1469)" class="st2" width="1" height="1"/>
			<polygon class="st2" points="407.6,317.8 407.2,317.4 406.9,317.1 407.1,317 407.3,316.9 407.5,317.4 			"/>
			<polygon class="st2" points="427.1,765.9 426.5,766.7 427.2,767.3 427.9,766.6 			"/>
			<polygon class="st2" points="785.6,355.7 786.4,356.3 787,355.6 786.3,355 			"/>
			<polygon class="st2" points="647.3,234.2 648,233.5 647.5,233.1 647,233.3 			"/>
			<polygon class="st2" points="639.5,344.9 638.8,345.6 638.8,345.6 			"/>
			<polygon class="st2" points="367.8,439.6 368.6,440.2 368.6,440.2 			"/>
			<polygon class="st2" points="691.2,388.9 690.5,389.6 689.8,389 690.5,388.3 			"/>
			<polygon class="st2" points="612.3,477.7 611.6,477.1 611.6,477.1 			"/>
			<polygon class="st2" points="340.6,572.5 341.3,571.8 341.3,571.8 			"/>
			
				<rect x="289.2" y="527.9" transform="matrix(0.6575 -0.7534 0.7534 0.6575 -298.9167 399.2051)" class="st2" width="1" height="1"/>
			<polygon class="st2" points="470.5,554.2 470.8,555.1 470.8,555.1 			"/>
			<polygon class="st2" points="398.2,490.7 399.1,490.9 399.1,490.9 			"/>
			<polygon class="st2" points="509.6,363.2 509.9,364.1 509.9,364.1 			"/>
			<polygon class="st2" points="481.6,500.2 481.2,499.3 481.2,499.3 			"/>
			<polygon class="st2" points="498.6,417.2 498.9,418.1 498.9,418.1 			"/>
			<polygon class="st2" points="530,444.7 529.1,444.6 529.1,444.6 			"/>
			<path class="st2" d="M908.2,370.2c-24.4,119.3-93.1,243.5-184.3,348S518.8,907.2,404,947.2l0.6,1.8
				c115.1-40.2,229.2-125,320.6-229.6s160.3-229.2,184.8-348.8L908.2,370.2L908.2,370.2z"/>
			<path class="st2" d="M581.9,83.9c114.7-40,208.5-27.8,267.4,23.9c58.9,51.7,83.4,143.2,59,262.4l1.9,0.4
				c24.5-119.7,0.1-212-59.6-264.3C790.9,53.9,696.3,41.9,581.2,82L581.9,83.9L581.9,83.9z"/>
			<path class="st2" d="M77.7,660.9c24.4-119.3,93.1-243.5,184.3-348S467.1,123.9,581.9,83.9l-0.6-1.8
				C466.1,122.2,352,207,260.6,311.7S100.3,540.9,75.8,660.5L77.7,660.9L77.7,660.9z"/>
			<path class="st2" d="M404,947.2c-114.7,40-208.5,27.8-267.4-23.9c-58.9-51.7-83.4-143.2-59-262.5l-1.9-0.4
				c-24.5,119.6-0.1,212,59.6,264.3s154.2,64.4,269.3,24.2L404,947.2L404,947.2z"/>
			
				<linearGradient id="SVGID_00000011733463579356084040000010952297320950556597_" gradientUnits="userSpaceOnUse" x1="416.3758" y1="467.4681" x2="653.0948" y2="1170.0708" gradientTransform="matrix(1 0 0 1 0 -226.76)">
				<stop  offset="0" style="stop-color:#343A3F"/>
				<stop  offset="1" style="stop-color:#343A3F;stop-opacity:0"/>
			</linearGradient>
			<path style="fill-rule:evenodd;clip-rule:evenodd;fill:url(#SVGID_00000011733463579356084040000010952297320950556597_);" d="
				M908.2,369.6c-48.9,238.9-274.9,497.6-504.8,577.8c-134.9,47.1-241.2,22.2-296-54.7c29.9,45.3,91.4,96.2,130.7,116.9
				c57.4,30.2,131.3,36.5,213.3,7.9c229.9-80.2,455.8-338.8,504.8-577.8c17.6-86.2,9.8-158-18.1-210.9c-12.7-24-37.3-58.3-54.9-81.9
				C916.7,200.7,927.2,276.8,908.2,369.6L908.2,369.6z"/>
			<path class="st2" d="M892,160.3C892,160.3,892,160.3,892,160.3c-1.1-2-2.1-4.1-3.3-6c0,0,0,0,0-0.1v0c0,0,0,0,0-0.1
				c0,0,0-0.1-0.1-0.1c-1.5-2.6-3-5.2-4.5-7.7l-0.5,0.3l-0.3,0.2l0,0.1h0l0,0l-0.5,0.3l-0.3,0.2c0,0,0.1,0.1,0.1,0.1c0,0,0,0,0,0.1
				c33.2,53.5,43.7,129.3,24.7,221.9l0.9,0.2h0.1l0.8,0.2c3.4-16.9,5.9-33.2,7.5-48.9c0.2-2.3,0.4-4.5,0.6-6.8
				c0.2-2.6,0.4-5.1,0.5-7.7c0,0,0,0,0-0.1c0.2-2.9,0.3-5.7,0.4-8.6c0.2-3.2,0.2-6.5,0.3-9.7C919.3,238.4,910,195.3,892,160.3z
				 M886.7,149.9c-0.1-0.1-0.1-0.1-0.2-0.2c-0.8-1.1-1.6-2.2-2.5-3.3c0,0,0-0.1-0.1-0.1l-0.4,0.3h0l-0.3,0.2l0,0.1h0l0,0l-0.4,0.3
				l-0.3,0.2c0,0,0,0,0,0.1c0.8,1.1,1.6,2.1,2.4,3.2c0,0,0,0,0.1,0.1c1,1.3,1.9,2.7,2.9,4c0.1,0.3,0.3,0.5,0.5,0.8
				c-0.1-0.3-0.3-0.5-0.4-0.8c0.6,0.9,1.3,1.8,1.9,2.6c0.7,0.9,1.4,1.9,2.1,2.8c0,0,0,0,0,0c0.6,0.8,1.2,1.6,1.7,2.4
				c0,0,0.1,0.1,0.1,0.1c7.8,10.8,16.1,22.6,23.8,34.1c7.6,11.5,14.6,22.8,19.7,32.4l0.8-0.4l0.9-0.5
				C926.9,205.4,904,173.3,886.7,149.9z M142.9,929.8l-1.4-1.1c-0.3-0.2-0.5-0.4-0.8-0.7c-0.7-0.5-1.3-1.1-2-1.6
				c-0.4-0.3-0.7-0.6-1.1-0.9c-0.1-0.1-0.2-0.1-0.2-0.2c-1.1-0.9-2.2-1.9-3.2-2.8c-0.7-0.6-1.3-1.2-2-1.8c-0.1-0.1-0.2-0.2-0.3-0.3
				c-0.6-0.6-1.3-1.2-1.9-1.8c-0.4-0.4-0.8-0.8-1.2-1.2c-1-0.9-1.9-1.9-2.9-2.8c-0.7-0.7-1.4-1.4-2-2.1c-0.6-0.6-1.2-1.2-1.7-1.8
				c-0.1-0.1-0.2-0.2-0.2-0.2c-0.5-0.5-1-1.1-1.5-1.6c1.2,1.5,2.4,3,3.7,4.5c0.8,1,1.7,2,2.6,3.1c0.4,0.5,0.8,0.9,1.2,1.4h0v0l0,0
				c0.3,0.3,0.5,0.6,0.8,0.9c2.1,2.1,4.4,4.1,6.6,6c1.1,1,2.3,1.9,3.4,2.9l0,0c0.7,0.5,1.3,1.1,2,1.6c0.1,0,0.1,0.1,0.1,0.1
				c0.1,0.1,0.2,0.1,0.3,0.2c0.1,0.1,0.1,0.1,0.2,0.2c0.3,0.2,0.6,0.5,0.9,0.7c47.7,37.3,115.4,50.9,196.8,35.4
				C257.7,981.1,190.2,967.3,142.9,929.8z M892,160.3C892,160.3,892,160.3,892,160.3c-0.7-1-1.4-1.9-2.1-2.8
				c-0.7-0.9-1.3-1.8-1.9-2.6c0.1,0.3,0.3,0.5,0.4,0.8c0.2,0.3,0.3,0.5,0.5,0.8c0.1,0.1,0.1,0.2,0.2,0.4c0.2,0.4,0.4,0.8,0.7,1.2
				c0.1,0.2,0.2,0.4,0.3,0.6c0.7,1.3,1.4,2.6,2,3.9c0.2,0.4,0.4,0.9,0.7,1.4c0.2,0.3,0.3,0.5,0.4,0.8c0.8,1.7,1.6,3.4,2.4,5.1
				c0.4,0.9,0.8,1.7,1.2,2.6c0.4,0.9,0.8,1.8,1.2,2.6c0.5,1.2,1,2.4,1.5,3.6c0.5,1.2,0.9,2.4,1.4,3.6c0.4,1,0.8,2,1.2,3.1
				c0.3,0.7,0.5,1.5,0.8,2.2c0.2,0.7,0.5,1.3,0.7,2c0,0,0,0,0,0.1v0c0.3,0.8,0.5,1.6,0.8,2.4c0.1,0.4,0.3,0.8,0.4,1.2
				c0,0.1,0,0.1,0,0.1c0.1,0.2,0.1,0.4,0.2,0.7c0.2,0.5,0.3,0.9,0.4,1.4c0,0.1,0.1,0.2,0.1,0.3c0.1,0.3,0.2,0.7,0.3,1
				c0.2,0.5,0.3,1,0.4,1.5c0.1,0.3,0.2,0.5,0.3,0.8c0,0.1,0.1,0.2,0.1,0.3c0.2,0.7,0.4,1.3,0.5,2c0.3,1.2,0.7,2.3,1,3.5
				c0.2,0.7,0.3,1.3,0.5,1.9c0.2,0.7,0.3,1.3,0.5,2c0.3,1.3,0.7,2.6,1,4c0.6,2.6,1.2,5.3,1.8,8c0,0,0,0,0,0.1
				c0.2,1.3,0.5,2.5,0.7,3.8c0.3,1.5,0.5,3,0.8,4.5c0.2,1.4,0.5,2.8,0.7,4.2c0.2,1.4,0.4,2.8,0.6,4.2c0.2,1.3,0.4,2.7,0.5,4.1
				c0,0.1,0,0.2,0.1,0.3c0,0.3,0.1,0.5,0.1,0.8c0.1,0.4,0.1,0.9,0.2,1.4c0.1,0.7,0.2,1.4,0.2,2.1c0.2,1.4,0.3,2.9,0.4,4.4
				c0.2,2.4,0.4,4.7,0.6,7.1c0.1,0.6,0.1,1.2,0.1,1.8c0,0.4,0.1,0.8,0.1,1.3c0.1,0.6,0.1,1.2,0.1,1.8c0.1,0.9,0.1,1.7,0.1,2.6
				c0,0.3,0.1,0.7,0.1,1c0,0.2,0.1,0.4,0.1,0.7c0,0.7,0.1,1.4,0.1,2.1c0.1,0.8,0.1,1.6,0.1,2.4c0,1.7,0.1,3.3,0.1,5.1
				c0,1.2,0.1,2.4,0.1,3.5v4.8c0,0.3,0,0.6,0,0.9c0,0.9,0,1.7,0,2.6v0.6c0,0.4,0,0.8,0,1.2c0,0.5,0,1.1,0,1.6v0.1c0,0.1,0,0.1,0,0.2
				v0.3c0,0.1,0,0.2,0,0.4v0.8c0,1.5-0.1,3-0.2,4.4v0.4c0,0.1,0,0.2,0,0.3v0.4c0,0.1,0,0.3,0,0.4c0,0.3,0,0.5-0.1,0.8
				c0,0.7-0.1,1.3-0.1,2v0.3c0,0.2,0,0.4-0.1,0.7c0,0,0,0,0,0.1v0.4c0,0.2,0,0.4,0,0.7c0,0.4-0.1,0.8-0.1,1.2v0.1c0,0.1,0,0.1,0,0.2
				c-0.1,1.6-0.2,3.2-0.3,4.8c-0.2,2.1-0.3,4.1-0.5,6.2c0,0.3-0.1,0.6-0.1,1c-0.2,2.1-0.4,4.2-0.6,6.3c-0.1,0.4-0.1,0.9-0.1,1.3
				c-0.1,1.3-0.3,2.5-0.4,3.8c-0.1,1.3-0.3,2.5-0.5,3.8c-0.2,1.3-0.3,2.7-0.5,4c-0.2,1.6-0.4,3.2-0.7,4.9c-0.1,0.5-0.1,1-0.2,1.5
				c-0.2,1.4-0.4,2.8-0.6,4.2c-0.3,2.1-0.7,4.3-1,6.4c-0.2,1.1-0.4,2.3-0.6,3.4c-0.2,1.2-0.4,2.3-0.6,3.5c-0.1,0.3-0.1,0.7-0.2,1
				c-0.1,0.3-0.1,0.5-0.2,0.8c-0.3,1.6-0.6,3.3-1,5c-0.1,0.4-0.1,0.7-0.2,1.1c-0.1,0.4-0.2,0.8-0.2,1.2v0c0,0,0,0,0,0.1
				c0,0.1,0,0.2-0.1,0.2c0,0,0,0.1,0,0.1c0,0.1,0,0.1,0,0.1v0c-24.4,119.3-93,243.5-184.3,347.9c-2.3,2.6-4.5,5.1-6.8,7.7
				c0,0.1-0.1,0.1-0.1,0.1c-0.6,0.7-1.3,1.4-1.9,2.1c-0.7,0.8-1.4,1.5-2,2.3c-3.7,4.1-7.4,8.1-11.1,12.1l-0.9,1
				c-0.6,0.6-1.2,1.3-1.8,1.9c-0.2,0.2-0.3,0.4-0.5,0.5c-0.8,0.8-1.5,1.6-2.3,2.4c-2.1,2.2-4.2,4.3-6.2,6.5
				c-0.2,0.2-0.4,0.4-0.6,0.6c-1.5,1.5-3,3-4.5,4.5c-1.9,1.9-3.8,3.8-5.7,5.8c-0.5,0.5-1,1-1.5,1.5c-0.8,0.8-1.7,1.7-2.5,2.5
				c-1.1,1.1-2.2,2.2-3.3,3.3c-3,2.9-6,5.8-9,8.7c-2.2,2.1-4.3,4.1-6.5,6.1c-0.4,0.3-0.7,0.7-1.1,1c-0.3,0.3-0.6,0.5-0.9,0.8
				c-2.2,2.1-4.4,4.1-6.6,6.1c-0.3,0.3-0.7,0.6-1,0.9c-0.9,0.8-1.8,1.6-2.7,2.4c-0.1,0.1-0.2,0.2-0.3,0.3c-1.3,1.2-2.7,2.4-4,3.6
				c-0.6,0.5-1.3,1.1-1.9,1.6c-0.2,0.2-0.4,0.4-0.7,0.6c-0.2,0.2-0.4,0.4-0.7,0.6c-1.6,1.4-3.3,2.9-4.9,4.3
				c-5.5,4.8-11.1,9.6-16.8,14.2c-0.2,0.2-0.4,0.4-0.7,0.6c-2.1,1.8-4.3,3.5-6.4,5.2c-0.5,0.4-1,0.9-1.6,1.3
				c-0.2,0.2-0.4,0.3-0.6,0.5c-1.7,1.4-3.4,2.7-5.1,4.1c-0.4,0.4-0.9,0.7-1.4,1.1c-0.2,0.2-0.4,0.3-0.6,0.5
				c-0.3,0.2-0.5,0.4-0.8,0.6c-2,1.6-4.1,3.2-6.2,4.8c-0.8,0.6-1.6,1.2-2.4,1.9c-1.3,1-2.5,1.9-3.8,2.9c-0.8,0.6-1.5,1.2-2.3,1.7
				c-0.2,0.1-0.3,0.3-0.5,0.4c-0.3,0.2-0.7,0.5-1,0.7c-1.2,0.8-2.3,1.7-3.4,2.5c-1.1,0.8-2.3,1.7-3.4,2.5c-0.3,0.2-0.7,0.5-1,0.7
				c-1.2,0.8-2.4,1.7-3.6,2.6c-0.5,0.4-1.1,0.8-1.6,1.2c-1.4,1-2.7,2-4.1,2.9c-0.7,0.4-1.3,0.9-1.9,1.4c-1.9,1.4-3.9,2.7-5.8,4
				c-0.3,0.2-0.6,0.4-0.9,0.6s-0.6,0.4-0.9,0.6c-4.3,3-8.6,5.8-13,8.7c-0.4,0.2-0.7,0.5-1.1,0.7c-0.4,0.3-0.8,0.5-1.2,0.8
				c-0.4,0.2-0.8,0.5-1.3,0.8c-2.9,1.9-5.8,3.7-8.8,5.6c-0.1,0.1-0.3,0.2-0.4,0.3c-0.2,0.1-0.4,0.2-0.6,0.4c-4.1,2.6-8.2,5-12.3,7.5
				c-0.5,0.3-1,0.6-1.6,1c-0.9,0.5-1.8,1.1-2.7,1.6c-0.4,0.3-0.9,0.5-1.3,0.8c-0.3,0.2-0.7,0.4-1,0.6c-2.2,1.3-4.3,2.5-6.5,3.7
				c-0.4,0.2-0.8,0.4-1.2,0.7c-2.4,1.3-4.7,2.6-7.1,4c-0.2,0.1-0.4,0.2-0.7,0.3c-0.2,0.1-0.5,0.3-0.7,0.4c-0.2,0.1-0.4,0.2-0.5,0.3
				c-0.8,0.4-1.5,0.8-2.3,1.3c-0.9,0.5-1.9,1-2.9,1.5c-0.8,0.4-1.6,0.9-2.5,1.3c-3,1.6-6,3.1-8.9,4.6c-0.2,0.1-0.3,0.2-0.4,0.2
				c-1.8,0.9-3.5,1.8-5.3,2.6c-4,2-8,3.9-12,5.8c-1.2,0.6-2.4,1.1-3.6,1.7c-0.9,0.4-1.9,0.9-2.8,1.3c-0.3,0.1-0.6,0.3-0.9,0.4
				c-0.7,0.3-1.3,0.6-2,0.9c-6,2.7-12.1,5.3-18.1,7.8c-3,1.2-6,2.4-9.1,3.6c-3,1.2-6,2.3-9.1,3.5c-3,1.1-6,2.2-9.1,3.2
				c-0.2,0.1-0.4,0.1-0.6,0.2v0l0.3,0.8c0.2-0.1,0.4-0.1,0.6-0.2c114.9-40.2,228.8-124.9,320.1-229.4
				c91.3-104.5,160-228.8,184.6-348.3v-0.1c0.1-0.2,0.1-0.3,0.1-0.5c3.4-16.9,5.9-33.2,7.5-48.9c0.2-2.3,0.4-4.5,0.6-6.8
				c0.2-2.6,0.4-5.1,0.5-7.7c0,0,0,0,0-0.1c0.2-2.9,0.3-5.7,0.4-8.6c0.2-3.2,0.2-6.5,0.3-9.7C919.3,238.4,910,195.3,892,160.3z
				 M142.9,929.8l-1.4-1.1c-0.3-0.2-0.5-0.4-0.8-0.7c-0.7-0.5-1.3-1.1-2-1.6c-0.4-0.3-0.7-0.6-1.1-0.9c-0.1-0.1-0.2-0.1-0.2-0.2
				c-1.1-0.9-2.2-1.9-3.2-2.8c-0.7-0.6-1.3-1.2-2-1.8c-0.1-0.1-0.2-0.2-0.3-0.3c-0.6-0.6-1.3-1.2-1.9-1.8c-0.4-0.4-0.8-0.8-1.2-1.2
				c-1-0.9-1.9-1.9-2.9-2.8c-0.7-0.7-1.4-1.4-2-2.1c-0.6-0.6-1.2-1.2-1.7-1.8c-0.1-0.1-0.2-0.2-0.2-0.2c-0.5-0.5-1-1.1-1.5-1.6
				c1.2,1.5,2.4,3,3.7,4.5c0.8,1,1.7,2,2.6,3.1c0.4,0.5,0.8,0.9,1.2,1.4v0l0,0c0.3,0.3,0.5,0.6,0.8,0.9c2.1,2.1,4.4,4.1,6.6,6
				c1.1,1,2.3,1.9,3.4,2.9l0,0c0.7,0.5,1.3,1.1,2,1.6c0.1,0,0.1,0.1,0.1,0.1c0.1,0.1,0.2,0.1,0.3,0.2c0.1,0.1,0.1,0.1,0.2,0.2
				c0.3,0.2,0.6,0.5,0.9,0.7c47.7,37.3,115.4,50.9,196.8,35.4C257.7,981.1,190.2,967.3,142.9,929.8z M892,160.3
				C892,160.3,892,160.3,892,160.3c-0.7-1-1.4-1.9-2.1-2.8c-0.7-0.9-1.3-1.8-1.9-2.6c0.1,0.3,0.3,0.5,0.4,0.8
				c0.2,0.3,0.3,0.5,0.5,0.8c0.1,0.1,0.1,0.2,0.2,0.4c0.2,0.4,0.4,0.8,0.7,1.2c0.1,0.2,0.2,0.4,0.3,0.6c0.7,1.3,1.4,2.6,2,3.9
				c0.2,0.4,0.4,0.9,0.7,1.4c0.2,0.3,0.3,0.5,0.4,0.8c0.8,1.7,1.6,3.4,2.4,5.1c0.4,0.9,0.8,1.7,1.2,2.6c0.4,0.9,0.8,1.8,1.2,2.6
				c0.5,1.2,1,2.4,1.5,3.6c0.5,1.2,0.9,2.4,1.4,3.6c0.4,1,0.8,2,1.2,3.1c0.3,0.7,0.5,1.5,0.8,2.2c0.2,0.7,0.5,1.3,0.7,2
				c0,0,0,0,0,0.1v0c0.3,0.8,0.5,1.6,0.8,2.4c0.1,0.4,0.3,0.8,0.4,1.2c0,0.1,0,0.1,0,0.1c0.1,0.2,0.1,0.4,0.2,0.7
				c0.2,0.5,0.3,0.9,0.4,1.4c0,0.1,0.1,0.2,0.1,0.3c0.1,0.3,0.2,0.7,0.3,1c0.2,0.5,0.3,1,0.4,1.5c0.1,0.3,0.2,0.5,0.3,0.8
				c0,0.1,0.1,0.2,0.1,0.3c0.2,0.7,0.4,1.3,0.5,2c0.3,1.2,0.7,2.3,1,3.5c0.2,0.7,0.3,1.3,0.5,1.9c0.2,0.6,0.3,1.3,0.5,2
				c0.3,1.3,0.7,2.6,1,4c0.6,2.6,1.2,5.3,1.8,8c0,0,0,0,0,0.1c0.2,1.3,0.5,2.5,0.7,3.8c0.3,1.5,0.5,3,0.8,4.5
				c0.2,1.4,0.5,2.8,0.7,4.2c0.2,1.4,0.4,2.8,0.6,4.2c0.2,1.3,0.4,2.7,0.5,4.1c0,0.1,0,0.2,0.1,0.3c0,0.3,0.1,0.5,0.1,0.8
				c0.1,0.4,0.1,0.9,0.2,1.4c0.1,0.7,0.2,1.4,0.2,2.1c0.2,1.4,0.3,2.9,0.4,4.4c0.2,2.4,0.4,4.7,0.6,7.1c0.1,0.6,0.1,1.2,0.1,1.8
				c0,0.4,0.1,0.8,0.1,1.3c0.1,0.6,0.1,1.2,0.1,1.8c0.1,0.9,0.1,1.7,0.1,2.6c0,0.3,0.1,0.7,0.1,1c0,0.2,0.1,0.4,0.1,0.7
				c0,0.7,0.1,1.4,0.1,2.1c0.1,0.8,0.1,1.6,0.1,2.4c0,1.7,0.1,3.3,0.1,5.1c0,1.2,0.1,2.4,0.1,3.5v4.8c0,0.9,0,1.8,0,2.7
				c0,0.3,0,0.5,0,0.8v0.6c0,0.4,0,0.8,0,1.2c0,0.5,0,1.1,0,1.6v0.1c0,0.1,0,0.2,0,0.3v0.1c0,0.1,0,0.2,0,0.4v0.8
				c0,1.3-0.1,2.6-0.1,3.9c0,0.2,0,0.4-0.1,0.6v0.4c0,0.1,0,0.2,0,0.3v0.4c0,0.1,0,0.3,0,0.4c0,0.3,0,0.5-0.1,0.8
				c0,0.7-0.1,1.5-0.1,2.2c0,0.4,0,0.8-0.1,1.1c0,0.2,0,0.4,0,0.7c0,0.4-0.1,0.8-0.1,1.2v0.1c0,0.1,0,0.1,0,0.2
				c-0.1,1.6-0.2,3.2-0.3,4.8c-0.2,2.1-0.3,4.1-0.5,6.2c0,0.3-0.1,0.6-0.1,1c-0.2,2.1-0.4,4.2-0.6,6.3c-0.1,0.4-0.1,0.9-0.1,1.3
				c-0.1,1.3-0.3,2.5-0.4,3.8c-0.1,1.3-0.3,2.5-0.5,3.8c-0.2,1.3-0.3,2.7-0.5,4c-0.2,1.6-0.4,3.2-0.7,4.9c-0.1,0.5-0.1,1-0.2,1.5
				c-0.2,1.4-0.4,2.8-0.6,4.2c-0.3,2.1-0.7,4.3-1,6.4c-0.2,1.1-0.4,2.3-0.6,3.4c-0.2,1.2-0.4,2.3-0.6,3.5c-0.1,0.3-0.1,0.7-0.2,1
				c-0.1,0.3-0.1,0.5-0.2,0.8c-0.3,1.6-0.6,3.3-1,5c-0.1,0.4-0.1,0.7-0.2,1.1c-0.1,0.4-0.2,0.8-0.2,1.2v0c0,0,0,0,0,0.1
				c0,0.1,0,0.2-0.1,0.2c0,0,0,0.1,0,0.1c0,0.1,0,0.1,0,0.1v0c-24.4,119.3-93,243.5-184.3,347.9c-2.3,2.6-4.5,5.1-6.8,7.7
				c0,0.1-0.1,0.1-0.1,0.1c-0.6,0.7-1.3,1.4-1.9,2.1c-0.7,0.8-1.4,1.5-2,2.3c-3.7,4.1-7.4,8.1-11.1,12.1l-0.9,1
				c-0.6,0.6-1.2,1.3-1.8,1.9c-0.2,0.2-0.3,0.3-0.5,0.5c-0.8,0.8-1.5,1.6-2.3,2.4c-2.1,2.2-4.2,4.3-6.2,6.5
				c-0.2,0.2-0.4,0.4-0.6,0.6c-1.5,1.5-3,3-4.5,4.5c-1.9,1.9-3.8,3.8-5.7,5.8c-0.5,0.5-1,1-1.5,1.5c-0.8,0.8-1.7,1.7-2.5,2.5
				c-1.1,1.1-2.2,2.2-3.3,3.3c-3,2.9-6,5.8-9,8.7c-2.2,2.1-4.3,4.1-6.5,6.1c-0.4,0.3-0.7,0.7-1.1,1c-0.3,0.3-0.6,0.5-0.9,0.8
				c-2.2,2.1-4.4,4.1-6.6,6.1c-0.3,0.3-0.7,0.6-1,0.9c-0.9,0.8-1.8,1.6-2.7,2.4c-0.1,0.1-0.2,0.2-0.3,0.3c-0.4,0.4-0.9,0.8-1.3,1.2
				c-0.7,0.6-1.4,1.2-2,1.8c-0.2,0.2-0.4,0.4-0.7,0.6c-0.6,0.5-1.2,1.1-1.9,1.6c-0.2,0.2-0.4,0.4-0.7,0.6c-0.2,0.2-0.4,0.4-0.7,0.6
				c-1.1,1-2.2,2-3.3,3c-0.5,0.4-1.1,0.9-1.6,1.4c-5.5,4.8-11.1,9.6-16.8,14.2c-0.2,0.2-0.4,0.4-0.7,0.6c-2.1,1.8-4.3,3.5-6.4,5.2
				c-0.5,0.4-1,0.9-1.6,1.3c-0.2,0.2-0.4,0.3-0.6,0.5c-1.7,1.4-3.4,2.7-5.1,4.1c-0.4,0.4-0.9,0.7-1.4,1.1c-0.2,0.2-0.4,0.3-0.6,0.5
				c-0.3,0.2-0.5,0.4-0.8,0.6c-0.8,0.7-1.6,1.3-2.4,1.9c-1.3,1-2.5,2-3.8,2.9c-0.8,0.6-1.6,1.2-2.4,1.9c-1.7,1.3-3.3,2.6-5.1,3.8
				c-0.3,0.2-0.7,0.5-1,0.7c-0.2,0.1-0.3,0.3-0.5,0.4c-0.1,0-0.1,0.1-0.1,0.1c-0.3,0.2-0.6,0.4-0.8,0.6c-1.2,0.8-2.3,1.7-3.4,2.5
				c-1.1,0.8-2.3,1.7-3.4,2.5c-0.3,0.2-0.7,0.5-1,0.7c-0.3,0.2-0.7,0.5-1,0.8c-0.8,0.6-1.7,1.2-2.5,1.8c-0.5,0.4-1.1,0.8-1.6,1.2
				c-1.4,1-2.7,2-4.1,2.9c-0.7,0.4-1.3,0.9-1.9,1.4c-1.9,1.4-3.9,2.7-5.8,4c-0.1,0.1-0.1,0.1-0.2,0.2c-0.2,0.2-0.4,0.3-0.7,0.5
				c-0.3,0.2-0.6,0.4-0.9,0.6c-2.6,1.8-5.2,3.6-7.8,5.3c-1.7,1.2-3.4,2.3-5.2,3.4c-0.4,0.2-0.7,0.5-1.1,0.7
				c-0.4,0.3-0.8,0.5-1.2,0.8c-0.4,0.3-0.8,0.5-1.3,0.8c-2.7,1.8-5.4,3.5-8.2,5.2c-0.2,0.1-0.4,0.2-0.5,0.3
				c-0.1,0.1-0.3,0.2-0.4,0.2c-0.2,0.1-0.4,0.2-0.6,0.4c-4.6,2.9-9.2,5.7-13.9,8.5c-0.1,0.1-0.3,0.2-0.4,0.3
				c-1.2,0.7-2.4,1.5-3.7,2.1c-0.3,0.2-0.7,0.4-1,0.6c-0.3,0.2-0.5,0.3-0.8,0.5c-0.4,0.2-0.8,0.5-1.2,0.7c-1.3,0.7-2.6,1.5-3.8,2.2
				c-0.1,0-0.1,0.1-0.2,0.1c-0.2,0.1-0.3,0.2-0.5,0.3c-0.4,0.2-0.8,0.4-1.2,0.7c-2.4,1.3-4.7,2.6-7.1,4c-0.2,0.1-0.4,0.2-0.7,0.4
				c-0.2,0.1-0.5,0.3-0.7,0.4c-0.2,0.1-0.4,0.2-0.5,0.3c-0.8,0.4-1.5,0.8-2.3,1.3c-0.9,0.5-1.9,1-2.9,1.5c-0.8,0.4-1.6,0.9-2.5,1.3
				c-2.1,1.1-4.2,2.2-6.3,3.3c-0.6,0.3-1.2,0.6-1.8,0.9c-0.3,0.2-0.5,0.3-0.8,0.4c-0.2,0.1-0.3,0.2-0.4,0.2
				c-1.8,0.9-3.5,1.8-5.3,2.6c-5.2,2.6-10.3,5.1-15.5,7.5c-1,0.4-2,0.9-2.9,1.3c-0.3,0.1-0.6,0.3-0.9,0.4c-0.4,0.2-0.8,0.4-1.2,0.5
				c-0.3,0.1-0.5,0.2-0.8,0.3c-0.8,0.4-1.6,0.7-2.4,1c-2.2,1-4.5,2-6.7,2.9c-3,1.3-6,2.6-9,3.8c-1.9,0.8-3.8,1.5-5.7,2.3
				c-1.1,0.4-2.2,0.9-3.4,1.3c-0.2,0.1-0.3,0.2-0.5,0.2c-1.5,0.6-3,1.2-4.4,1.7c-1.4,0.5-2.7,1-4.1,1.5c-3,1.1-6,2.2-9.1,3.3v0
				c-0.2,0.1-0.4,0.1-0.6,0.2l0.3,0.8c0.2-0.1,0.4-0.1,0.6-0.2c114.9-40.2,228.8-124.9,320.1-229.4
				c91.3-104.5,160-228.8,184.6-348.3v-0.1c0.1-0.2,0.1-0.3,0.1-0.5c3.4-16.9,5.9-33.2,7.5-48.9c0.2-2.3,0.4-4.5,0.6-6.8
				c0.2-2.6,0.4-5.1,0.5-7.7c0,0,0,0,0-0.1c0.2-2.9,0.3-5.7,0.4-8.6c0.2-3.2,0.2-6.5,0.3-9.7C919.3,238.4,910,195.3,892,160.3z
				 M939,228.4l-0.9,0.5l-0.8,0.4c27.8,52.6,35.6,124.2,18,210.2l0.9,0.2l0.9,0.2C974.9,353.6,967.1,281.5,939,228.4z M892,160.3
				c-0.7-0.9-1.4-1.9-2.1-2.8c-0.7-0.9-1.3-1.8-1.9-2.6c0.1,0.3,0.3,0.5,0.4,0.8c0.2,0.3,0.3,0.5,0.5,0.8c0.1,0.1,0.1,0.2,0.2,0.4
				c0.2,0.4,0.4,0.8,0.7,1.2c0.1,0.2,0.2,0.4,0.3,0.6c0.7,1.3,1.4,2.6,2,3.9c0.2,0.4,0.4,0.9,0.7,1.4c0.2,0.3,0.3,0.5,0.4,0.8
				c0.8,1.7,1.6,3.4,2.4,5.1c0.4,0.9,0.8,1.7,1.2,2.6c0.4,0.9,0.8,1.8,1.2,2.6c0.5,1.2,1,2.4,1.5,3.6c0.5,1.2,0.9,2.4,1.4,3.6
				c0.4,1,0.8,2,1.2,3.1c0.3,0.7,0.5,1.5,0.8,2.2c0.2,0.7,0.5,1.3,0.7,2c0,0,0,0,0,0.1v0c0.3,0.8,0.5,1.6,0.8,2.4
				c0.1,0.4,0.3,0.8,0.4,1.2c0,0.1,0,0.1,0,0.1c0.1,0.2,0.1,0.4,0.2,0.7c0.2,0.5,0.3,0.9,0.4,1.4c0,0.1,0.1,0.2,0.1,0.3
				c0.1,0.3,0.2,0.7,0.3,1c0.2,0.5,0.3,1,0.4,1.5c0.1,0.3,0.2,0.5,0.3,0.8c0,0.1,0.1,0.2,0.1,0.3c0.2,0.7,0.4,1.3,0.5,2
				c0.3,1.2,0.7,2.3,1,3.5c0.2,0.7,0.3,1.3,0.5,1.9c0.2,0.6,0.3,1.3,0.5,2c0.3,1.3,0.7,2.6,1,4c0.6,2.6,1.2,5.3,1.8,8c0,0,0,0,0,0.1
				c0.2,1.3,0.5,2.5,0.7,3.8c0.3,1.5,0.5,3,0.8,4.5c0.2,1.4,0.5,2.8,0.7,4.2c0.2,1.4,0.4,2.8,0.6,4.2c0.2,1.3,0.4,2.7,0.5,4.1
				c0,0.1,0,0.2,0.1,0.3c0,0.3,0.1,0.5,0.1,0.8c0.1,0.4,0.1,0.9,0.2,1.4c0.1,0.7,0.2,1.4,0.2,2.1c0.2,1.4,0.3,2.9,0.4,4.4
				c0.2,2.4,0.4,4.7,0.6,7.1c0.1,0.6,0.1,1.2,0.1,1.8c0,0.4,0.1,0.8,0.1,1.3c0.1,0.6,0.1,1.2,0.1,1.8c0.1,0.9,0.1,1.7,0.1,2.6
				c0,0.3,0.1,0.7,0.1,1c0,0.2,0.1,0.4,0.1,0.7c0,0.7,0.1,1.4,0.1,2.1c0.1,0.8,0.1,1.6,0.1,2.4c0,1.7,0.1,3.3,0.1,5.1
				c0,1.2,0,2.4,0.1,3.5v4.8c0,0.9,0,1.8,0,2.7c0,0.4,0,0.9,0,1.4c0,0.4,0,0.8,0,1.2c0,0.5,0,1.1,0,1.6v0.1c0,0.1,0,0.2,0,0.3v0.1
				c0,0.2,0,0.5,0,0.7v0.4c0,1.3-0.1,2.6-0.1,3.9c0,0.3,0,0.6-0.1,0.9v0.1c0,0.2,0,0.5,0,0.7c0,0.1,0,0.3,0,0.4
				c-0.1,1.4-0.1,2.8-0.2,4.2c0,0.2,0,0.4,0,0.7c0,0.4-0.1,0.8-0.1,1.2v0.1c0,0.1,0,0.1,0,0.2c-0.1,1.6-0.2,3.2-0.3,4.8
				c-0.1,2.1-0.3,4.1-0.5,6.2c0,0.3-0.1,0.6-0.1,1c-0.2,2.1-0.4,4.2-0.6,6.3c-0.1,0.4-0.1,0.9-0.1,1.3c-0.1,1.3-0.3,2.5-0.4,3.8
				c-0.2,1.3-0.3,2.5-0.5,3.8c-0.2,1.3-0.3,2.7-0.5,4c-0.2,1.6-0.4,3.2-0.7,4.9c-0.1,0.5-0.1,1-0.2,1.5c-0.2,1.4-0.4,2.8-0.6,4.2
				c-0.3,2.1-0.7,4.3-1,6.4c-0.2,1.1-0.4,2.3-0.6,3.4c-0.2,1.2-0.4,2.3-0.6,3.5c-0.1,0.3-0.1,0.7-0.2,1c-0.1,0.3-0.1,0.5-0.2,0.8
				c-0.3,1.6-0.6,3.3-1,5c-0.1,0.4-0.1,0.7-0.2,1.1c-0.1,0.4-0.2,0.8-0.2,1.2v0c0,0,0,0,0,0.1c0,0.1,0,0.2-0.1,0.2c0,0,0,0.1,0,0.1
				c0,0.1,0,0.1,0,0.1v0c-24.4,119.3-93,243.5-184.3,347.9c-2.3,2.6-4.5,5.1-6.8,7.7c0,0.1-0.1,0.1-0.1,0.1
				c-0.6,0.7-1.3,1.4-1.9,2.1c-0.7,0.8-1.4,1.5-2,2.3c-3.7,4.1-7.4,8.1-11.1,12.1l-0.9,1c-0.6,0.6-1.2,1.3-1.8,1.9
				c-0.2,0.2-0.3,0.3-0.5,0.5c-0.8,0.8-1.5,1.6-2.3,2.4c-2.1,2.2-4.2,4.3-6.2,6.5c-0.2,0.2-0.4,0.4-0.6,0.6c-1.5,1.5-3,3-4.5,4.5
				c-1.9,1.9-3.8,3.8-5.7,5.8c-0.5,0.5-1,1-1.5,1.5c-0.8,0.8-1.7,1.7-2.5,2.5c-1.1,1.1-2.2,2.2-3.3,3.3c-3,2.9-6,5.8-9,8.7
				c-2.2,2.1-4.3,4.1-6.5,6.1c-0.4,0.3-0.7,0.7-1.1,1c-0.3,0.3-0.6,0.5-0.9,0.8c-2.2,2.1-4.4,4.1-6.6,6.1c-0.3,0.3-0.7,0.6-1,0.9
				c-0.9,0.8-1.8,1.6-2.7,2.4c-0.5,0.5-1.1,1-1.6,1.5c-0.7,0.6-1.4,1.2-2,1.8c-0.2,0.2-0.4,0.4-0.7,0.6c-0.6,0.5-1.2,1.1-1.9,1.6
				c-0.2,0.2-0.4,0.4-0.7,0.6c-0.2,0.2-0.4,0.4-0.7,0.6c-1.1,1-2.2,2-3.3,3c-0.5,0.4-1.1,0.9-1.6,1.4c-5.5,4.8-11.1,9.6-16.8,14.2
				c-0.2,0.2-0.4,0.4-0.7,0.6c-2.1,1.8-4.3,3.5-6.4,5.2c-0.5,0.4-1,0.9-1.6,1.3c-0.2,0.2-0.4,0.3-0.6,0.5c-1.7,1.4-3.4,2.7-5.1,4.1
				c-0.4,0.4-0.9,0.7-1.4,1.1c-0.2,0.2-0.4,0.3-0.6,0.5c-0.3,0.2-0.5,0.4-0.8,0.6c-0.8,0.7-1.6,1.3-2.4,1.9c-1.3,1-2.5,2-3.8,2.9
				c-0.8,0.6-1.6,1.2-2.4,1.9c-1.7,1.3-3.3,2.6-5.1,3.8c-0.3,0.2-0.7,0.5-1,0.7c-0.2,0.1-0.3,0.3-0.5,0.4c-0.1,0-0.1,0.1-0.1,0.1
				c-0.3,0.2-0.6,0.4-0.8,0.6c-1.2,0.8-2.3,1.7-3.4,2.5c-1.1,0.8-2.3,1.7-3.4,2.5c-0.3,0.2-0.7,0.5-1,0.7c-0.3,0.2-0.7,0.5-1,0.8
				c-0.8,0.6-1.7,1.2-2.5,1.8c-0.5,0.4-1.1,0.8-1.6,1.2c-1.4,1-2.7,2-4.1,2.9c-0.7,0.4-1.3,0.9-1.9,1.4c-1.9,1.4-3.9,2.7-5.8,4
				c-0.1,0.1-0.1,0.1-0.2,0.2c-0.2,0.2-0.4,0.3-0.7,0.5c-0.3,0.2-0.6,0.4-0.9,0.6c-2.6,1.8-5.2,3.6-7.8,5.3
				c-1.7,1.2-3.4,2.3-5.2,3.4c-0.4,0.2-0.7,0.5-1.1,0.7c-0.4,0.3-0.8,0.5-1.2,0.8c-0.4,0.3-0.8,0.5-1.3,0.8
				c-2.7,1.8-5.4,3.5-8.2,5.2c-0.2,0.1-0.4,0.2-0.5,0.3c-0.1,0.1-0.3,0.2-0.4,0.2c-0.2,0.1-0.4,0.2-0.6,0.4
				c-4.6,2.9-9.2,5.7-13.9,8.5c-0.1,0.1-0.3,0.2-0.4,0.3c-1.2,0.7-2.4,1.5-3.7,2.1c-0.3,0.2-0.7,0.4-1,0.6c-0.3,0.2-0.5,0.3-0.8,0.5
				c-0.4,0.2-0.8,0.5-1.2,0.7c-1.3,0.7-2.5,1.5-3.8,2.2c-0.1,0-0.1,0.1-0.2,0.1c-0.2,0.1-0.3,0.2-0.5,0.3c-0.4,0.2-0.8,0.4-1.2,0.7
				c-2.4,1.3-4.7,2.6-7.1,4c-0.2,0.1-0.4,0.2-0.7,0.4c-0.2,0.1-0.5,0.3-0.7,0.4c-0.2,0.1-0.4,0.2-0.5,0.3c-0.8,0.4-1.5,0.8-2.3,1.3
				c-0.9,0.5-1.9,1-2.9,1.5c-0.8,0.4-1.6,0.9-2.5,1.3c-2.1,1.1-4.2,2.2-6.3,3.3c-0.6,0.3-1.2,0.6-1.8,0.9c-0.3,0.2-0.5,0.3-0.8,0.4
				c-0.2,0.1-0.3,0.2-0.4,0.2c-1.8,0.9-3.5,1.8-5.3,2.6c-5.2,2.6-10.3,5.1-15.5,7.5c-1,0.4-2,0.9-2.9,1.3c-0.3,0.1-0.6,0.3-0.9,0.4
				c-0.4,0.2-0.8,0.4-1.2,0.5c-0.3,0.1-0.5,0.2-0.8,0.3c-0.8,0.4-1.6,0.7-2.4,1c-2.2,1-4.5,2-6.7,2.9c-3,1.3-6,2.6-9,3.8
				c-1.9,0.8-3.8,1.5-5.7,2.3c-1.3,0.5-2.6,1-3.9,1.5c-1.5,0.6-3,1.2-4.4,1.7c-1.4,0.5-2.7,1-4.1,1.5c-3,1.1-6,2.2-9.1,3.3v0
				c-0.2,0.1-0.4,0.1-0.6,0.2l0.3,0.8c0.2-0.1,0.4-0.1,0.6-0.2c114.9-40.2,228.8-124.9,320.1-229.4
				c91.3-104.5,160-228.8,184.6-348.3v-0.1c0.1-0.2,0.1-0.3,0.1-0.5c3.4-16.9,5.9-33.2,7.5-48.9c0.2-2.3,0.4-4.5,0.6-6.8
				c0.2-2.6,0.4-5.1,0.5-7.7c0,0,0,0,0-0.1c0.2-2.9,0.3-5.7,0.4-8.6c0.2-3.2,0.2-6.5,0.3-9.7C919.3,238.4,910,195.3,892,160.3
				C892,160.3,892,160.3,892,160.3z M142.9,929.8l-1.4-1.1c-0.3-0.2-0.5-0.4-0.8-0.7c-0.7-0.5-1.3-1.1-2-1.6
				c-0.4-0.3-0.7-0.6-1.1-0.9c-0.1-0.1-0.2-0.1-0.2-0.2c-1.1-0.9-2.2-1.9-3.2-2.8c-0.7-0.6-1.3-1.2-2-1.8c-0.1-0.1-0.2-0.2-0.3-0.3
				c-0.6-0.6-1.3-1.2-1.9-1.8c-0.4-0.4-0.8-0.8-1.2-1.2c-1-0.9-1.9-1.9-2.9-2.8c-0.7-0.7-1.4-1.4-2-2.1c-0.6-0.6-1.2-1.2-1.7-1.8
				c-0.1-0.1-0.2-0.2-0.2-0.2c-0.5-0.5-1-1.1-1.5-1.6c1.2,1.5,2.4,3,3.7,4.5c0.8,1,1.7,2,2.6,3.1c0.4,0.5,0.8,0.9,1.2,1.4v0l0,0
				c0.3,0.3,0.5,0.6,0.8,0.9c2.1,2.1,4.4,4.1,6.6,6c1.1,1,2.3,1.9,3.4,2.9l0,0c0.7,0.5,1.3,1.1,2,1.6c0.1,0,0.1,0.1,0.1,0.1
				c0.1,0.1,0.2,0.1,0.3,0.2c0.1,0.1,0.1,0.1,0.2,0.2c0.3,0.2,0.6,0.5,0.9,0.7c47.7,37.3,115.4,50.9,196.8,35.4
				C257.7,981.1,190.2,967.3,142.9,929.8z M892,160.3C892,160.3,892,160.3,892,160.3c-0.7-1-1.4-1.9-2.1-2.8
				c-0.7-0.9-1.3-1.8-1.9-2.6c0.1,0.3,0.3,0.5,0.4,0.8c0.2,0.3,0.3,0.5,0.5,0.8c0.1,0.1,0.1,0.2,0.2,0.4c0.2,0.4,0.4,0.8,0.7,1.2
				c0.1,0.2,0.2,0.4,0.3,0.6c0.7,1.3,1.4,2.6,2,3.9c0.2,0.4,0.4,0.9,0.7,1.4c0.2,0.3,0.3,0.5,0.4,0.8c0.8,1.7,1.6,3.4,2.4,5.1
				c0.4,0.9,0.8,1.7,1.2,2.6c0.4,0.9,0.8,1.8,1.2,2.6c0.5,1.2,1,2.4,1.5,3.6c0.5,1.2,0.9,2.4,1.4,3.6c0.4,1,0.8,2,1.2,3.1
				c0.3,0.7,0.5,1.5,0.8,2.2c0.2,0.7,0.5,1.3,0.7,2c0,0,0,0,0,0.1v0c0.3,0.8,0.5,1.6,0.8,2.4c0.1,0.4,0.3,0.8,0.4,1.2
				c0,0.1,0,0.1,0,0.1c0.1,0.2,0.1,0.4,0.2,0.7c0.2,0.5,0.3,0.9,0.4,1.4c0,0.1,0.1,0.2,0.1,0.3c0.1,0.3,0.2,0.7,0.3,1
				c0.2,0.5,0.3,1,0.4,1.5c0.1,0.3,0.2,0.5,0.3,0.8c0,0.1,0.1,0.2,0.1,0.3c0.2,0.7,0.4,1.3,0.5,2c0.3,1.2,0.7,2.3,1,3.5
				c0.4,1.3,0.7,2.6,1,3.9c0.3,1.3,0.7,2.6,1,4c0.6,2.6,1.2,5.3,1.8,8c0,0,0,0,0,0.1c0.2,1.3,0.5,2.5,0.7,3.8c0.3,1.5,0.5,3,0.8,4.5
				c0.2,1.4,0.5,2.8,0.7,4.2c0.2,1.4,0.4,2.8,0.6,4.2c0.2,1.3,0.4,2.7,0.5,4.1c0,0.1,0,0.2,0.1,0.3c0,0.3,0.1,0.5,0.1,0.8
				c0.1,0.4,0.1,0.9,0.2,1.4c0.1,0.7,0.2,1.4,0.2,2.1c0.2,1.4,0.3,2.9,0.4,4.4c0.2,2.4,0.4,4.7,0.6,7.1c0.1,0.6,0.1,1.2,0.1,1.8
				c0,0.4,0.1,0.8,0.1,1.3c0.1,0.6,0.1,1.2,0.1,1.8c0.1,0.9,0.1,1.7,0.1,2.6c0,0.3,0.1,0.7,0.1,1c0,0.2,0.1,0.4,0.1,0.7
				c0,0.7,0.1,1.4,0.1,2.1c0.1,0.8,0.1,1.6,0.1,2.4c0,1.7,0.1,3.3,0.1,5.1c0,1.2,0.1,2.4,0.1,3.5v4.8c0,0.3,0,0.6,0,0.9v1.8
				c0,0.3,0,0.5,0,0.8v0.6c0,0.4,0,0.8,0,1.2c0,0.5,0,1.1,0,1.6v0.1c0,0.1,0,0.2,0,0.3v0.1c0,0.1,0,0.2,0,0.4v0.8
				c0,1.5-0.1,3-0.2,4.4v0.4c0,0.1,0,0.2,0,0.3v0.4c0,0.1,0,0.3,0,0.4c0,0.3,0,0.5-0.1,0.8c0,0.7-0.1,1.3-0.1,2v0.3
				c0,0.2,0,0.4-0.1,0.7c0,0,0,0,0,0.1v0.4c0,0.2,0,0.4,0,0.7c0,0.4-0.1,0.8-0.1,1.2v0.1c0,0.1,0,0.1,0,0.2
				c-0.1,1.6-0.2,3.2-0.3,4.8c-0.2,2.1-0.3,4.1-0.5,6.2c0,0.3-0.1,0.6-0.1,1c-0.2,2.1-0.4,4.2-0.6,6.3c-0.1,0.4-0.1,0.9-0.1,1.3
				c-0.1,1.3-0.3,2.5-0.4,3.8c-0.1,1.3-0.3,2.5-0.5,3.8c-0.2,1.3-0.3,2.7-0.5,4c-0.2,1.6-0.4,3.2-0.7,4.9c-0.1,0.5-0.1,1-0.2,1.5
				c-0.2,1.4-0.4,2.8-0.6,4.2c-0.3,2.1-0.7,4.3-1,6.4c-0.2,1.1-0.4,2.3-0.6,3.4c-0.2,1.2-0.4,2.3-0.6,3.5c-0.1,0.3-0.1,0.7-0.2,1
				c-0.1,0.3-0.1,0.5-0.2,0.8c-0.3,1.6-0.6,3.3-1,5c-0.1,0.4-0.1,0.7-0.2,1.1c-0.1,0.4-0.2,0.8-0.2,1.2v0c0,0,0,0,0,0.1
				c0,0.1,0,0.2-0.1,0.2c0,0,0,0.1,0,0.1c0,0.1,0,0.1,0,0.1v0c-24.4,119.3-93,243.5-184.3,347.9c-2.3,2.6-4.5,5.1-6.8,7.7
				c0,0.1-0.1,0.1-0.1,0.1c-0.6,0.7-1.3,1.4-1.9,2.1c-0.7,0.8-1.4,1.5-2,2.3c-3.7,4.1-7.4,8.1-11.1,12.1l-0.9,1
				c-0.6,0.6-1.2,1.3-1.8,1.9c-0.2,0.2-0.3,0.4-0.5,0.5c-0.8,0.8-1.5,1.6-2.3,2.4c-2.1,2.2-4.2,4.3-6.2,6.5
				c-0.2,0.2-0.4,0.4-0.6,0.6c-1.5,1.5-3,3-4.5,4.5c-1.9,1.9-3.8,3.8-5.7,5.8c-0.5,0.5-1,1-1.5,1.5c-0.8,0.8-1.7,1.7-2.5,2.5
				c-1.1,1.1-2.2,2.2-3.3,3.3c-3,2.9-6,5.8-9,8.7c-2.2,2.1-4.3,4.1-6.5,6.1c-0.4,0.3-0.7,0.7-1.1,1c-0.3,0.3-0.6,0.5-0.9,0.8
				c-2.2,2.1-4.4,4.1-6.6,6.1c-0.3,0.3-0.7,0.6-1,0.9c-0.9,0.8-1.8,1.6-2.7,2.4c-0.5,0.5-1.1,1-1.6,1.5c-0.7,0.6-1.4,1.2-2,1.8
				c-0.2,0.2-0.4,0.4-0.7,0.6c-0.6,0.5-1.2,1.1-1.9,1.6c-0.2,0.2-0.4,0.4-0.7,0.6c-0.2,0.2-0.4,0.4-0.7,0.6
				c-1.6,1.4-3.3,2.9-4.9,4.3c-5.5,4.8-11.1,9.6-16.8,14.2c-0.2,0.2-0.4,0.4-0.7,0.6c-2.1,1.8-4.3,3.5-6.4,5.2
				c-0.5,0.4-1,0.9-1.6,1.3c-0.2,0.2-0.4,0.3-0.6,0.5c-1.7,1.4-3.4,2.7-5.1,4.1c-0.4,0.4-0.9,0.7-1.4,1.1c-0.2,0.2-0.4,0.3-0.6,0.5
				c-0.3,0.2-0.5,0.4-0.8,0.6c-0.8,0.7-1.6,1.3-2.4,1.9c-1.3,1-2.5,2-3.8,2.9c-0.8,0.6-1.6,1.2-2.4,1.9c-1.7,1.3-3.3,2.6-5.1,3.8
				c-0.3,0.2-0.7,0.5-1,0.7c-0.2,0.1-0.3,0.3-0.5,0.4c-0.1,0-0.1,0.1-0.1,0.1c-0.3,0.2-0.6,0.4-0.8,0.6c-1.2,0.8-2.3,1.7-3.4,2.5
				c-1.1,0.8-2.3,1.7-3.4,2.5c-0.3,0.2-0.7,0.5-1,0.7c-0.3,0.2-0.7,0.5-1,0.8c-0.8,0.6-1.7,1.2-2.5,1.8c-0.5,0.4-1.1,0.8-1.6,1.2
				c-1.4,1-2.7,2-4.1,2.9c-0.7,0.4-1.3,0.9-1.9,1.4c-1.9,1.4-3.9,2.7-5.8,4c-0.1,0.1-0.1,0.1-0.2,0.2c-0.2,0.2-0.4,0.3-0.7,0.5
				c-0.3,0.2-0.6,0.4-0.9,0.6c-2.6,1.8-5.2,3.6-7.8,5.3c-1.7,1.2-3.4,2.3-5.2,3.4c-0.4,0.2-0.7,0.5-1.1,0.7
				c-0.4,0.3-0.8,0.5-1.2,0.8c-0.4,0.3-0.8,0.5-1.3,0.8c-2.7,1.8-5.4,3.5-8.2,5.2c-0.2,0.1-0.4,0.2-0.5,0.3
				c-0.1,0.1-0.3,0.2-0.4,0.2c-0.2,0.1-0.4,0.2-0.6,0.4c-4.6,2.9-9.2,5.7-13.9,8.5c-0.1,0.1-0.3,0.2-0.4,0.3
				c-1.2,0.7-2.4,1.5-3.7,2.1c-0.3,0.2-0.7,0.4-1,0.6c-0.3,0.2-0.5,0.3-0.8,0.5c-0.4,0.2-0.8,0.5-1.2,0.7c-1.3,0.7-2.6,1.5-3.8,2.2
				c-0.1,0-0.1,0.1-0.2,0.1c-0.2,0.1-0.3,0.2-0.5,0.3c-0.4,0.2-0.8,0.4-1.2,0.7c-2.4,1.3-4.7,2.6-7.1,4c-0.2,0.1-0.4,0.2-0.7,0.4
				c-0.2,0.1-0.5,0.3-0.7,0.4c-0.2,0.1-0.4,0.2-0.5,0.3c-0.8,0.4-1.5,0.8-2.3,1.3c-0.9,0.5-1.9,1-2.9,1.5c-0.8,0.4-1.6,0.9-2.5,1.3
				c-2.1,1.1-4.2,2.2-6.3,3.3c-0.6,0.3-1.2,0.6-1.8,0.9c-0.3,0.2-0.5,0.3-0.8,0.4c-0.2,0.1-0.3,0.2-0.4,0.2
				c-1.8,0.9-3.5,1.8-5.3,2.6c-5.2,2.6-10.3,5.1-15.5,7.5c-1,0.4-2,0.9-2.9,1.3c-0.3,0.1-0.6,0.3-0.9,0.4c-0.4,0.2-0.8,0.4-1.2,0.5
				c-0.3,0.1-0.5,0.2-0.8,0.3c-0.8,0.4-1.6,0.7-2.4,1c-2.2,1-4.5,2-6.7,2.9c-3,1.3-6,2.6-9,3.8c-1.9,0.8-3.8,1.5-5.7,2.3
				c-1.1,0.4-2.2,0.9-3.4,1.3c-0.2,0.1-0.3,0.2-0.5,0.2c-1.5,0.6-3,1.2-4.4,1.7c-1.4,0.5-2.7,1-4.1,1.5c-3,1.1-6,2.2-9.1,3.3v0
				c-0.2,0.1-0.4,0.1-0.6,0.2l0.3,0.8c0.2-0.1,0.4-0.1,0.6-0.2c114.9-40.2,228.8-124.9,320.1-229.4
				c91.3-104.5,160-228.8,184.6-348.3v-0.1c0.1-0.2,0.1-0.3,0.1-0.5c3.4-16.9,5.9-33.2,7.5-48.9c0.2-2.3,0.4-4.5,0.6-6.8
				c0.2-2.6,0.4-5.1,0.5-7.7c0,0,0,0,0-0.1c0.2-2.9,0.3-5.7,0.4-8.6c0.2-3.2,0.2-6.5,0.3-9.7C919.3,238.4,910,195.3,892,160.3z
				 M142.9,929.8l-1.4-1.1c-0.3-0.2-0.5-0.4-0.8-0.7c-0.7-0.5-1.3-1.1-2-1.6c-0.4-0.3-0.7-0.6-1.1-0.9c-0.1-0.1-0.2-0.1-0.2-0.2
				c-1.1-0.9-2.2-1.9-3.2-2.8c-0.7-0.6-1.3-1.2-2-1.8c-0.1-0.1-0.2-0.2-0.3-0.3c-0.6-0.6-1.3-1.2-1.9-1.8c-0.4-0.4-0.8-0.8-1.2-1.2
				c-1-0.9-1.9-1.9-2.9-2.8c-0.7-0.7-1.4-1.4-2-2.1c-0.6-0.6-1.2-1.2-1.7-1.8c-0.1-0.1-0.2-0.2-0.2-0.2c-0.5-0.5-1-1.1-1.5-1.6
				c1.2,1.5,2.4,3,3.7,4.5c0.8,1,1.7,2,2.6,3.1c0.4,0.5,0.8,0.9,1.2,1.4v0l0,0c0.3,0.3,0.5,0.6,0.8,0.9c2.1,2.1,4.4,4.1,6.6,6
				c1.1,1,2.3,1.9,3.4,2.9l0,0c0.7,0.5,1.3,1.1,2,1.6c0.1,0,0.1,0.1,0.1,0.1c0.1,0.1,0.2,0.1,0.3,0.2c0.1,0.1,0.1,0.1,0.2,0.2
				c0.3,0.2,0.6,0.5,0.9,0.7c47.7,37.3,115.4,50.9,196.8,35.4C257.7,981.1,190.2,967.3,142.9,929.8z M892,160.3
				C892,160.3,892,160.3,892,160.3c-0.7-1-1.4-1.9-2.1-2.8c-0.7-0.9-1.3-1.8-1.9-2.6c0,0-0.1,0-0.1,0c0.1,0.3,0.3,0.5,0.5,0.8
				s0.3,0.5,0.5,0.8c0.1,0.1,0.1,0.2,0.2,0.4c0.2,0.4,0.4,0.8,0.7,1.2c0.1,0.2,0.2,0.4,0.3,0.6c0.7,1.3,1.4,2.6,2,3.9
				c0.2,0.4,0.4,0.9,0.7,1.4c0.2,0.3,0.3,0.5,0.4,0.8c0.8,1.7,1.6,3.4,2.4,5.1c0.4,0.9,0.8,1.7,1.2,2.6c0.4,0.9,0.8,1.8,1.2,2.6
				c0.5,1.2,1,2.4,1.5,3.6c0.5,1.2,0.9,2.4,1.4,3.6c0.4,1,0.8,2,1.2,3.1c0.3,0.7,0.5,1.5,0.8,2.2c0.2,0.7,0.5,1.3,0.7,2
				c0,0,0,0,0,0.1v0c0.3,0.8,0.5,1.6,0.8,2.4c0.1,0.4,0.3,0.8,0.4,1.2c0,0.1,0,0.1,0,0.1c0.1,0.2,0.1,0.4,0.2,0.7
				c0.2,0.5,0.3,0.9,0.4,1.4c0,0.1,0.1,0.2,0.1,0.3c0.3,0.8,0.5,1.6,0.8,2.5c0.1,0.3,0.2,0.5,0.3,0.8c0,0.1,0.1,0.2,0.1,0.3
				c0.2,0.7,0.4,1.3,0.5,2c0.3,1.2,0.7,2.3,1,3.5c0.2,0.7,0.3,1.3,0.5,1.9c0.2,0.7,0.3,1.3,0.5,2c0.3,1.3,0.7,2.6,1,4
				c0.6,2.6,1.2,5.3,1.8,8c0,0,0,0,0,0.1c0.2,1.3,0.5,2.5,0.7,3.8c0.3,1.5,0.5,3,0.8,4.5c0.2,1.4,0.5,2.8,0.7,4.2
				c0.2,1.4,0.4,2.8,0.6,4.2c0.2,1.3,0.4,2.7,0.5,4.1c0,0.1,0,0.2,0.1,0.3c0,0.3,0.1,0.5,0.1,0.8c0.1,0.4,0.1,0.9,0.2,1.4
				c0.1,0.7,0.2,1.4,0.2,2.1c0.2,1.4,0.3,2.9,0.4,4.4c0.2,2.4,0.4,4.7,0.6,7.1c0.1,0.6,0.1,1.2,0.1,1.8c0,0.4,0.1,0.8,0.1,1.3
				c0.1,0.6,0.1,1.2,0.1,1.8c0.1,0.9,0.1,1.7,0.1,2.6c0,0.3,0.1,0.7,0.1,1c0.1,0.9,0.1,1.8,0.1,2.7c0,0,0,0,0,0.1c0,0,0,0.1,0,0.1
				c0.1,1.7,0.1,3.4,0.2,5.1c0,0.8,0.1,1.7,0.1,2.5c0,1.9,0.1,3.9,0.1,5.8s0,3.9,0,5.9v0.6c0,0.4,0,0.8,0,1.2c0,0.5,0,1.1,0,1.6v0.1
				c0,0.1,0,0.1,0,0.2v0.3c0,0.1,0,0.2,0,0.4v0.8c0,1.5-0.1,3-0.2,4.4v0.4c0,0.1,0,0.2,0,0.3v0.4c0,0.1,0,0.3,0,0.4
				c0,0.3,0,0.5-0.1,0.8c0,0.7-0.1,1.3-0.1,2v0.3c0,0.2,0,0.4-0.1,0.7c0,0,0,0,0,0.1v0.4c0,0.2,0,0.4,0,0.7c0,0.4-0.1,0.8-0.1,1.2
				v0.1c0,0.1,0,0.1,0,0.2c-0.1,1.6-0.2,3.2-0.3,4.8c-0.2,2.1-0.3,4.1-0.5,6.2c0,0.3-0.1,0.6-0.1,1c-0.2,2.1-0.4,4.2-0.6,6.3
				c-0.1,0.4-0.1,0.9-0.1,1.3c-0.1,1.3-0.3,2.5-0.4,3.8c-0.1,1.3-0.3,2.5-0.5,3.8c-0.2,1.3-0.3,2.7-0.5,4c-0.2,1.6-0.4,3.2-0.7,4.9
				c-0.1,0.5-0.1,1-0.2,1.5c-0.2,1.4-0.4,2.8-0.6,4.2c-0.3,2.1-0.7,4.3-1,6.4c-0.2,1.1-0.4,2.3-0.6,3.4c-0.2,1.2-0.4,2.3-0.6,3.5
				c-0.1,0.3-0.1,0.7-0.2,1c-0.1,0.3-0.1,0.5-0.2,0.8c-0.3,1.6-0.6,3.3-1,5c-0.1,0.4-0.1,0.7-0.2,1.1c-0.1,0.4-0.2,0.8-0.2,1.2v0
				c0,0,0,0,0,0.1c0,0.1,0,0.2-0.1,0.2c0,0,0,0.1,0,0.1c0,0.1,0,0.1,0,0.1v0c-24.4,119.3-93,243.5-184.3,347.9
				c-2.3,2.6-4.5,5.1-6.8,7.7c0,0.1-0.1,0.1-0.1,0.1c-0.6,0.7-1.3,1.4-1.9,2.1c-0.7,0.8-1.4,1.5-2,2.3c-3.7,4.1-7.4,8.1-11.1,12.1
				l-0.9,1c-0.6,0.6-1.2,1.3-1.8,1.9c-0.2,0.2-0.3,0.4-0.5,0.5c-0.8,0.8-1.5,1.6-2.3,2.4c-2.1,2.2-4.2,4.3-6.2,6.5
				c-0.2,0.2-0.4,0.4-0.6,0.6c-1.5,1.5-3,3-4.5,4.5c-1.9,1.9-3.8,3.8-5.7,5.8c-0.5,0.5-1,1-1.5,1.5c-0.8,0.8-1.7,1.7-2.5,2.5
				c-1.1,1.1-2.2,2.2-3.3,3.3c-3,2.9-6,5.8-9,8.7c-2.2,2.1-4.3,4.1-6.5,6.1c-0.4,0.3-0.7,0.7-1.1,1c-0.3,0.3-0.6,0.5-0.9,0.8
				c-2.2,2.1-4.4,4.1-6.6,6.1c-0.3,0.3-0.7,0.6-1,0.9c-0.9,0.8-1.8,1.6-2.7,2.4c-0.1,0.1-0.2,0.2-0.3,0.3c-1.3,1.2-2.7,2.4-4,3.6
				c-0.6,0.5-1.3,1.1-1.9,1.6c-0.2,0.2-0.4,0.4-0.7,0.6c-0.2,0.2-0.4,0.4-0.7,0.6c-1.6,1.4-3.3,2.9-4.9,4.3
				c-5.5,4.8-11.1,9.6-16.8,14.2c-0.2,0.2-0.4,0.4-0.7,0.6c-2.1,1.8-4.3,3.5-6.4,5.2c-0.5,0.4-1,0.9-1.6,1.3
				c-0.2,0.2-0.4,0.3-0.6,0.5c-1.7,1.4-3.4,2.7-5.1,4.1c-0.4,0.4-0.9,0.7-1.4,1.1c-0.2,0.2-0.4,0.3-0.6,0.5
				c-0.3,0.2-0.5,0.4-0.8,0.6c-2,1.6-4.1,3.2-6.2,4.8c-0.8,0.6-1.6,1.2-2.4,1.9c-1.3,1-2.5,1.9-3.8,2.9c-0.8,0.6-1.5,1.2-2.3,1.7
				c-0.2,0.1-0.3,0.3-0.5,0.4c-0.3,0.2-0.7,0.5-1,0.7c-1.2,0.8-2.3,1.7-3.4,2.5c-1.1,0.8-2.3,1.7-3.4,2.5c-0.3,0.2-0.7,0.5-1,0.7
				c-1.2,0.8-2.4,1.7-3.6,2.6c-0.5,0.4-1.1,0.8-1.6,1.2c-1.4,1-2.7,2-4.1,2.9c-0.7,0.4-1.3,0.9-1.9,1.4c-1.9,1.4-3.9,2.7-5.8,4
				c-0.3,0.2-0.6,0.4-0.9,0.6s-0.6,0.4-0.9,0.6c-4.3,3-8.6,5.8-13,8.7c-0.4,0.2-0.7,0.5-1.1,0.7c-0.4,0.3-0.8,0.5-1.2,0.8
				c-0.4,0.2-0.8,0.5-1.3,0.8c-2.9,1.9-5.8,3.7-8.8,5.6c-0.1,0.1-0.3,0.2-0.4,0.3c-0.2,0.1-0.4,0.2-0.6,0.4c-4.1,2.6-8.2,5-12.3,7.5
				c-0.5,0.3-1,0.6-1.6,1c-0.9,0.5-1.8,1.1-2.7,1.6c-0.4,0.3-0.9,0.5-1.3,0.8c-0.3,0.2-0.7,0.4-1,0.6c-2.2,1.3-4.3,2.5-6.5,3.7
				c-0.4,0.2-0.8,0.4-1.2,0.7c-2.4,1.3-4.7,2.6-7.1,4c-0.2,0.1-0.4,0.2-0.7,0.3c-0.2,0.1-0.5,0.3-0.7,0.4c-0.2,0.1-0.4,0.2-0.5,0.3
				c-0.8,0.4-1.5,0.8-2.3,1.3c-0.9,0.5-1.9,1-2.9,1.5c-0.8,0.4-1.6,0.9-2.5,1.3c-3,1.6-6,3.1-8.9,4.6c-0.2,0.1-0.3,0.2-0.4,0.2
				c-1.8,0.9-3.5,1.8-5.3,2.6c-4,2-8,3.9-12,5.8c-1.2,0.6-2.4,1.1-3.6,1.7c-0.9,0.4-1.9,0.9-2.8,1.3c-0.3,0.1-0.6,0.3-0.9,0.4
				c-0.7,0.3-1.3,0.6-2,0.9c-6,2.7-12.1,5.3-18.1,7.8c-3,1.2-6,2.4-9.1,3.6c-3,1.2-6,2.3-9.1,3.5c-3,1.1-6,2.2-9.1,3.2
				c-0.2,0.1-0.4,0.1-0.6,0.2v0l0.3,0.8c0.2-0.1,0.4-0.1,0.6-0.2c114.9-40.2,228.8-124.9,320.1-229.4
				c91.3-104.5,160-228.8,184.6-348.3v-0.1c0.1-0.2,0.1-0.3,0.1-0.5c3.4-16.9,5.9-33.2,7.5-48.9c0.2-2.3,0.4-4.5,0.6-6.8
				c0.2-2.6,0.4-5.1,0.5-7.7c0,0,0,0,0-0.1c0.2-2.9,0.3-5.7,0.4-8.6c0.2-3.2,0.2-6.5,0.3-9.7C919.3,238.4,910,195.3,892,160.3z
				 M142.9,929.8l-1.4-1.1c-0.3-0.2-0.5-0.4-0.8-0.7c-0.7-0.5-1.3-1.1-2-1.6c-0.4-0.3-0.7-0.6-1.1-0.9c-0.1-0.1-0.2-0.1-0.2-0.2
				c-1.1-0.9-2.2-1.9-3.2-2.8c-0.7-0.6-1.3-1.2-2-1.8c-0.1-0.1-0.2-0.2-0.3-0.3c-0.6-0.6-1.3-1.2-1.9-1.8c-0.4-0.4-0.8-0.8-1.2-1.2
				c-1-0.9-1.9-1.9-2.9-2.8c-0.7-0.7-1.4-1.4-2-2.1c-0.6-0.6-1.2-1.2-1.7-1.8c-0.1-0.1-0.2-0.2-0.2-0.2c-0.5-0.5-1-1.1-1.5-1.6
				c1.2,1.5,2.4,3,3.7,4.5c0.8,1,1.7,2,2.6,3.1c0.4,0.5,0.8,0.9,1.2,1.4h0v0l0,0c0.3,0.3,0.5,0.6,0.8,0.9c2.1,2.1,4.4,4.1,6.6,6
				c1.1,1,2.3,1.9,3.4,2.9l0,0c0.7,0.5,1.3,1.1,2,1.6c0.1,0,0.1,0.1,0.1,0.1c0.1,0.1,0.2,0.1,0.3,0.2c0.1,0.1,0.1,0.1,0.2,0.2
				c0.3,0.2,0.6,0.5,0.9,0.7c47.7,37.3,115.4,50.9,196.8,35.4C257.7,981.1,190.2,967.3,142.9,929.8z M956.3,439.7l-0.9-0.2
				C930.9,558.8,862.3,683,771,787.5s-205.1,189.1-319.8,229.1l0.3,0.9l0.3,0.9c115.1-40.2,229.2-125,320.7-229.6
				c91.4-104.6,160.2-229.2,184.7-348.8L956.3,439.7z M451.5,1017.4l-0.3-0.9c-81.8,28.5-155.5,22.3-212.6-7.8l-0.4,0.8h0v0
				l-0.4,0.8l0,0c57.6,30.4,131.9,36.6,214.1,7.9L451.5,1017.4z M169.9,959.6L169.9,959.6c-14.7-12.8-28.9-26.7-41.2-40.8
				c-0.3-0.3-0.5-0.6-0.8-0.9l0,0v0c-0.4-0.5-0.8-0.9-1.2-1.4c-0.9-1-1.7-2-2.6-3.1c-1.2-1.5-2.5-3-3.7-4.5c0.5,0.5,1,1.1,1.5,1.6
				c-0.5-0.6-1.1-1.2-1.6-1.7c-0.1-0.1-0.2-0.2-0.2-0.3l0,0c0,0,0,0,0,0c-0.6-0.8-1.2-1.5-1.8-2.3c-0.1-0.1-0.1-0.2-0.2-0.3
				c-3.6-4.6-6.9-9.2-9.9-13.7l-0.5,0.3h0l-0.3,0.2h0v0l-0.2,0.1h0l-0.3,0.2l-0.1,0l-0.1,0.1l-0.2,0.1v0c0.1,0.1,0.2,0.2,0.2,0.3
				c7.5,11.3,16.9,22.8,27.4,34.3c10.6,11.5,22.3,22.8,34.4,33.3c24.1,21,49.4,38.9,69.1,49.4l0.4-0.8v0h0l0.4-0.8l0,0
				C219,998.4,193.9,980.5,169.9,959.6z M403.4,947.4L403.4,947.4L403.4,947.4l-0.3-1c-109.8,38.3-200.4,28.8-259.7-17.4
				c-0.3-0.3-0.6-0.5-0.9-0.8c-0.1-0.1-0.2-0.2-0.3-0.2c-0.8-0.7-1.6-1.3-2.4-2c-1.1-0.9-2.1-1.8-3.2-2.7
				c-10.6-9.1-20.1-19.6-28.4-31.2c0,0,0,0,0-0.1l-0.5,0.3l-0.3,0.2h0v0l-0.2,0.1h0l-0.3,0.2l-0.1,0l-0.1,0.1l-0.2,0.1
				c0.1,0.1,0.2,0.2,0.2,0.3c4,5.6,8.3,10.9,12.8,16c0.1,0.1,0.1,0.1,0.2,0.2c0,0,0,0,0,0.1c0.1,0,0.1,0.1,0.1,0.1h0
				c2.8,3.1,5.7,6.1,8.7,9c2.1,2.1,4.4,4.1,6.6,6c1.1,1,2.3,1.9,3.4,2.9l0,0c0.7,0.5,1.3,1.1,2,1.6c0.1,0,0.1,0.1,0.1,0.1
				c0.1,0.1,0.2,0.1,0.3,0.2c0.1,0.1,0.1,0.1,0.2,0.2c0.3,0.2,0.6,0.5,0.9,0.7c47.7,37.3,115.4,50.9,196.8,35.4
				c1.6-0.3,3.2-0.6,4.8-0.9c1.6-0.3,3.2-0.7,4.8-1c1.7-0.4,3.4-0.8,5.2-1.2c2.5-0.6,5-1.2,7.5-1.8c1.6-0.4,3.2-0.8,4.8-1.2
				c2.6-0.7,5.1-1.4,7.7-2.1c9.8-2.7,19.8-5.9,30-9.4L403.4,947.4z M908.3,369.6L908.3,369.6l-0.1,0l-0.9-0.2
				c-24.4,119.2-93,243.5-184.3,347.9c-91.3,104.5-205.1,189.1-319.8,229.1l0.3,0.9v0.1l0.3,0.8c0.2-0.1,0.4-0.1,0.6-0.2
				c114.9-40.2,228.8-124.9,320.1-229.4c91.3-104.5,160-228.8,184.6-348.3v-0.1c0.1-0.2,0.1-0.3,0.1-0.5L908.3,369.6z M883.6,146.7
				l-0.8,0.5v0l0,0l0.4-0.3l0,0h0l0-0.1L883.6,146.7L883.6,146.7l0.5-0.3L883.6,146.7z M120.1,908.5L120.1,908.5
				C120.1,908.5,120.1,908.5,120.1,908.5c-0.6-0.8-1.3-1.6-1.8-2.4c-0.1-0.1-0.2-0.2-0.2-0.3c-3.7-4.3-7.1-8.7-10.4-13.4v-0.1
				l-0.3,0.2h0v0c0.1,0.1,0.2,0.2,0.2,0.3c0,0,0,0,0.1,0.1c0.2,0.3,0.5,0.7,0.7,1c0.8,1.1,1.6,2.2,2.5,3.3c0.8,1,1.6,2.1,2.4,3.1
				c0.3,0.4,0.6,0.7,0.9,1.1c0.5,0.7,1,1.3,1.6,1.9c0.4,0.5,0.9,1,1.3,1.6c0.8,0.9,1.5,1.8,2.4,2.7c0.2,0.2,0.4,0.5,0.6,0.7
				c0,0.1,0.1,0.1,0.2,0.2C120.1,908.6,120.1,908.5,120.1,908.5z"/>
		</g>
	</g>
	<g>
		<g>
			<polygon class="st4" points="690.5,389.6 689.8,389 690.5,388.3 691.2,388.9 			"/>
			<path class="st4" d="M790.6,361.5l-57-6.3l-201,137.2l107.7,183.5l60.4,8.2L592.5,502.3L790.6,361.5z M698.7,682.8l-57.6-7.8
				L534.1,492.8l199.8-136.4l53.8,5.9L591.8,501.4L591,502L698.7,682.8z"/>
			<path d="M793.6,360.8l-60.2-6.6l-202.1,138L639.7,677l63.1,8.6l-108.9-183L793.6,360.8z M641,674.9L534.1,492.8l199.8-136.4
				l53.8,5.9L591.8,501.4L591,502l107.6,180.8L641,674.9z"/>
		</g>
		<g>
			<path class="st4" d="M496.6,516.4L335.8,630.7l55.6,8l88.5-60.9l45.7,79.5l57.3,8.6L496.6,516.4z M480.3,576.2l-89.2,61.3
				l-52.5-7.5l157.7-112l84.6,146.5l-54.6-8.2L480.3,576.2z"/>
			<path d="M496.9,514.8l-164,116.5l58.3,8.4l0.4,0.1l87.9-60.5l45.1,78.5l0.3,0.5l60,9L496.9,514.8z M338.6,630l157.7-112
				l84.6,146.5l-54.6-8.2l-46-80l-89.2,61.3L338.6,630z"/>
		</g>
		<g>
			<path class="st4" d="M418.5,316.7c0,0-105.9-13.5-169.7,102.9c0,0-67.6,129.4,44.1,193.7l185.9-126.7l-43.4-71.1
				c-8.1-13.3-23.2-20.6-38.6-18.7l-21.6,2.6l47.2,78.5l-125.2,86.5c0,0-51.9-47.5-13-131.1c0,0,40.8-80.8,133.6-75.8L569,375.5
				l-75.5,52.3l20.5,33.4l161.9-112.1L418.5,316.7z M494.9,428.1l77.1-53.3l-154.3-18.4c-92.3-5-134.2,75.5-134.6,76.4
				c-38.8,83.4,12.7,131.9,13.3,132.4l0.6,0.6l126.8-87.5l-46.8-78l19.9-2.5c15-1.8,29.8,5.3,37.6,18.2l42.9,70.3L293,612
				c-56.7-32.9-65.5-83.2-62.9-119.5c2.9-39.7,19.5-72,19.7-72.4c50.6-92.3,128.6-102.3,157.4-102.7l0.4,0.4l-0.1-0.4
				c0.5,0,1,0,1.5,0c5.8,0,9.2,0.4,9.4,0.4l220.5,27.7l34.1,4.3L514.3,459.6L494.9,428.1z"/>
			<path d="M418.7,315.7c-1.1-0.1-107.4-12.3-170.7,103.4c-0.2,0.3-17.1,33-20,73.1c-2.7,37.2,6.3,88.5,64.5,122l0.6,0.3
				l186.4-127.1l0.8-0.6l-43.9-72c-8.3-13.6-23.9-21.1-39.7-19.2l-23.2,2.9l47.5,79.1L297.3,563c-5.7-5.7-48-52.3-12.2-129.3
				c0.4-0.8,41.5-80,132.5-75.2l148.5,17.7L492,427.5l21.6,35.2l165.1-114.3L418.7,315.7z M572,374.8l-154.3-18.4
				c-92.3-5-134.2,75.5-134.6,76.4c-38.8,83.4,12.7,131.9,13.3,132.4l0.6,0.6l126.8-87.5l-46.8-78l19.9-2.5
				c15-1.8,29.8,5.3,37.6,18.2l42.9,70.3L293,612c-56.7-32.9-65.5-83.2-62.9-119.5c2.9-39.7,19.5-72,19.7-72.4
				c50.6-92.3,128.6-102.3,157.4-102.7c0.1,0,0.2,0,0.3,0c0.5,0,1,0,1.5,0c5.8,0,9.2,0.4,9.4,0.4l220.5,27.7l34.1,4.3L514.3,459.6
				l-19.4-31.5L572,374.8z"/>
		</g>
	</g>
</g>
</svg>
