<?xml version="1.0" encoding="utf-8"?>
<!-- Generator: Adobe Illustrator 24.0.0, SVG Export Plug-In . SVG Version: 6.00 Build 0)  -->
<svg version="1.1" id="Capa_1" xmlns="http://www.w3.org/2000/svg" xmlns:xlink="http://www.w3.org/1999/xlink" x="0px" y="0px"
	 viewBox="0 0 2500 2500" style="enable-background:new 0 0 2500 2500;" xml:space="preserve">
<style type="text/css">
	.st0{fill:#29A82F;}
	.st1{fill:#FFFFFF;}
</style>
<g>
	<g>
		<g>
			<path id="SVGID_1_" class="st0" d="M1249.9,6.9c687.4,0,1244.6,556.5,1244.6,1243.1s-557.2,1243.1-1244.6,1243.1
				S5.4,1936.5,5.4,1249.9S562.6,6.9,1249.9,6.9L1249.9,6.9z"/>
		</g>
	</g>
</g>
<g>
	<polygon class="st1" points="1922.9,656.6 1382.5,1249.5 1922.9,1843.4 2123.7,1843.4 1588.7,1250 2123.7,656.6 	"/>
	<path class="st1" d="M1286.6,1143.1l437.3-486.5H852c-296.9,0-537.7,265.7-537.7,593.4l0,0c0,0-10.7,407,366.2,558.1L1187,1250
		l-210.2-229.8c-43.8-47.9-107.2-66.8-166.9-49.8L748,988.1L986.2,1250l-337.7,373.7c0,0-193.7-115.7-192-391.3l0,0
		c0-232.4,189.7-420.8,400.2-420.8h525.8l-199.1,219.7L1286.6,1143.1z"/>
	<polygon class="st1" points="845.8,1843.4 1286.6,1358.9 1723.8,1843.4 1521.2,1843.4 1284.8,1580.5 1048.4,1843.4 	"/>
</g>
</svg>
